<svg width="56" height="56" viewBox="0 0 56 56" fill="none" xmlns="http://www.w3.org/2000/svg">
<path d="M55.8587 43.191L46.6754 15.5139C46.1651 13.9734 45.2711 12.5897 44.0784 11.4941C42.8858 10.3986 41.4341 9.62767 39.8613 9.25467C38.2886 8.88166 36.647 8.91894 35.0926 9.36298C33.5383 9.80702 32.1227 10.6431 30.9806 11.7916L28.0098 14.789L25.0327 11.7916C23.8904 10.6438 22.475 9.80849 20.9209 9.36492C19.3669 8.92134 17.7258 8.88428 16.1534 9.25723C14.5811 9.63019 13.1298 10.4008 11.9373 11.4958C10.7448 12.5909 9.85071 13.974 9.33997 15.5139L0.156692 43.191C0.0332802 43.5499 -0.0180683 43.9298 0.00562061 44.3087C0.0293096 44.6876 0.127565 45.0581 0.294699 45.3986C0.461833 45.7391 0.694526 46.043 0.979314 46.2925C1.2641 46.5421 1.59533 46.7324 1.95382 46.8525C2.31232 46.9726 2.69096 47.0201 3.06784 46.9922C3.44472 46.9643 3.81235 46.8616 4.14946 46.69C4.48657 46.5184 4.78646 46.2814 5.03177 45.9926C5.27708 45.7038 5.46294 45.369 5.57861 45.0075L14.7608 17.3293C14.9639 16.7186 15.3189 16.17 15.7921 15.7356C16.2652 15.3012 16.841 14.9954 17.4647 14.8472C18.0885 14.6989 18.7396 14.7131 19.3563 14.8885C19.9731 15.0638 20.535 15.3944 20.989 15.8491L24.5443 19.4285C22.6592 22.8012 19.7159 25.4521 16.1736 26.9676H16.1642C15.651 27.1894 15.2138 27.5574 14.9067 28.0262C14.5995 28.495 14.4358 29.0439 14.4358 29.6051C14.4358 30.1664 14.5995 30.7153 14.9067 31.1841C15.2138 31.6528 15.651 32.0209 16.1642 32.2427C20.3091 34.0187 23.6106 37.3353 25.3788 41.4995C25.5989 42.0161 25.9651 42.4564 26.432 42.7658C26.8988 43.0752 27.4458 43.2401 28.0051 43.2401C28.5643 43.2401 29.1113 43.0752 29.5782 42.7658C30.045 42.4564 30.4112 42.0161 30.6313 41.4995C32.3988 37.3352 35.7 34.0185 39.8449 32.2427C40.3584 32.021 40.7959 31.653 41.1033 31.1841C41.4107 30.7152 41.5745 30.1661 41.5745 29.6046C41.5745 29.0431 41.4107 28.494 41.1033 28.0251C40.7959 27.5562 40.3584 27.1882 39.8449 26.9665H39.8386C36.2985 25.4498 33.3572 22.7991 31.4731 19.4274L35.0285 15.8554C35.4822 15.4002 36.0441 15.069 36.6609 14.8931C37.2777 14.7173 37.929 14.7027 38.5531 14.8506C39.1771 14.9986 39.7532 15.3042 40.2267 15.7386C40.7002 16.1729 41.0554 16.7216 41.2587 17.3325L50.4409 45.0107C50.6867 45.7253 51.2032 46.3138 51.8782 46.6482C52.5532 46.9826 53.3322 47.036 54.0462 46.7968C54.7601 46.5576 55.3514 46.0451 55.6915 45.3706C56.0316 44.6961 56.0932 43.914 55.8629 43.1942L55.8587 43.191ZM30.3103 31.9243C29.4762 32.7628 28.7071 33.664 28.0098 34.6202C26.6094 32.7065 24.9283 31.0172 23.0239 29.6099C24.9278 28.2056 26.6089 26.5195 28.0098 24.609C29.4102 26.5214 31.0913 28.2093 32.9956 29.6151C32.0434 30.3152 31.1457 31.0872 30.3103 31.9243Z" fill="url(#paint0_linear_32_91)"/>
<defs>
<linearGradient id="paint0_linear_32_91" x1="5.19589" y1="14.1923" x2="50.5454" y2="52.2248" gradientUnits="userSpaceOnUse">
<stop stop-color="#FF435D"/>
<stop offset="1" stop-color="#B0208E"/>
</linearGradient>
</defs>
</svg>
